<svg xmlns="http://www.w3.org/2000/svg" width="512" height="512" viewBox="0 0 512 512">
  <!-- Fondo Verde Institucional -->
  <rect width="512" height="512" rx="120" fill="#004d40"/>
  
  <!-- Icono de Reporte/Documento -->
  <rect x="140" y="100" width="232" height="300" rx="15" fill="white"/>
  <rect x="180" y="150" width="152" height="12" rx="6" fill="#e0e0e0"/>
  <rect x="180" y="180" width="152" height="12" rx="6" fill="#e0e0e0"/>
  <rect x="180" y="210" width="100" height="12" rx="6" fill="#e0e0e0"/>
  
  <!-- Clip superior -->
  <rect x="220" y="85" width="72" height="30" rx="8" fill="#757575"/>
  
  <!-- Escudo Estilizado Policía Nacional (Canto inferior derecho) -->
  <path d="M420 300L340 330V380C340 430 375 470 420 485C465 470 500 430 500 380V330L420 300Z" fill="#ffeb3b" stroke="#004d40" stroke-width="8"/>
  <path d="M420 315L355 340V375C355 415 385 450 420 465C455 450 485 415 485 375V340L420 315Z" fill="#1b5e20"/>
  <circle cx="420" cy="385" r="25" fill="#fbc02d" stroke="white" stroke-width="4"/>
</svg>
