<svg xmlns="http://www.w3.org/2000/svg" viewBox="0 0 800 600">
  <!-- Definiciones de gradientes, patrones y filtros -->
  <defs>
    <!-- Gradiente principal del fondo -->
    <linearGradient id="fondoMadre" x1="0%" y1="0%" x2="100%" y2="100%">
      <stop offset="0%" stop-color="#fff5f7" />
      <stop offset="40%" stop-color="#fce4ec" />
      <stop offset="100%" stop-color="#f8bbd0" />
    </linearGradient>
    
    <!-- Gradiente para las flores -->
    <radialGradient id="gradienteFlor1" cx="50%" cy="50%" r="50%" fx="50%" fy="50%">
      <stop offset="0%" stop-color="#f8bbd0" />
      <stop offset="70%" stop-color="#f48fb1" />
      <stop offset="100%" stop-color="#ec407a" />
    </radialGradient>
    
    <radialGradient id="gradienteFlor2" cx="50%" cy="50%" r="50%" fx="60%" fy="40%">
      <stop offset="0%" stop-color="#f8bbd0" />
      <stop offset="50%" stop-color="#f06292" />
      <stop offset="100%" stop-color="#e91e63" />
    </radialGradient>
    
    <!-- Efecto de sombra para elementos -->
    <filter id="sombra" x="-20%" y="-20%" width="140%" height="140%">
      <feDropShadow dx="3" dy="3" stdDeviation="4" flood-opacity="0.3" flood-color="#ad1457" />
    </filter>
    
    <!-- Efecto de luz suave -->
    <filter id="luzSuave" x="-30%" y="-30%" width="160%" height="160%">
      <feGaussianBlur in="SourceGraphic" stdDeviation="8" result="blur" />
      <feColorMatrix in="blur" type="matrix" values="1 0 0 0 0  0 1 0 0 0  0 0 1 0 0  0 0 0 18 -7" result="glow" />
      <feBlend in="SourceGraphic" in2="glow" mode="screen" />
    </filter>
    
    <!-- Patrón de fondo sutil -->
    <pattern id="patronPuntosSuaves" x="0" y="0" width="20" height="20" patternUnits="userSpaceOnUse">
      <circle cx="10" cy="10" r="1.5" fill="#f06292" opacity="0.2" />
    </pattern>
    
    <!-- Textura para el marco principal -->
    <pattern id="texturaMarco" x="0" y="0" width="40" height="40" patternUnits="userSpaceOnUse">
      <rect width="40" height="40" fill="white" />
      <path d="M0,0 L40,40 M40,0 L0,40" stroke="#f8bbd0" stroke-width="0.5" />
    </pattern>
  </defs>
  
  <!-- Capa de fondo con textura -->
  <rect width="800" height="600" rx="20" ry="20" fill="url(#fondoMadre)" />
  <rect width="800" height="600" rx="20" ry="20" fill="url(#patronPuntosSuaves)" />
  
  <!-- Efecto de luz radiante en el fondo -->
  <circle cx="400" cy="300" r="250" fill="#fce4ec" opacity="0.5" filter="url(#luzSuave)" />
  
  <!-- Borde decorativo con efecto -->
  <rect x="15" y="15" width="770" height="570" rx="15" ry="15" fill="none" stroke="#e91e63" stroke-width="3" stroke-dasharray="0,12" stroke-linecap="round" />
  <rect x="25" y="25" width="750" height="550" rx="10" ry="10" fill="none" stroke="#f06292" stroke-width="1" />
  
  <!-- Marco principal con textura y sombra -->
  <rect x="100" y="150" width="600" height="300" rx="20" ry="20" fill="url(#texturaMarco)" stroke="#e91e63" stroke-width="3" filter="url(#sombra)" />
  
  <!-- Decoración de cintas en las esquinas del marco -->
  <path d="M100,150 C70,130 60,120 50,80" stroke="#f06292" stroke-width="3" fill="none" />
  <path d="M100,150 C80,120 70,110 40,100" stroke="#f06292" stroke-width="3" fill="none" />
  
  <path d="M700,150 C730,130 740,120 750,80" stroke="#f06292" stroke-width="3" fill="none" />
  <path d="M700,150 C720,120 730,110 760,100" stroke="#f06292" stroke-width="3" fill="none" />
  
  <path d="M100,450 C70,470 60,480 50,520" stroke="#f06292" stroke-width="3" fill="none" />
  <path d="M100,450 C80,480 70,490 40,500" stroke="#f06292" stroke-width="3" fill="none" />
  
  <path d="M700,450 C730,470 740,480 750,520" stroke="#f06292" stroke-width="3" fill="none" />
  <path d="M700,450 C720,480 730,490 760,500" stroke="#f06292" stroke-width="3" fill="none" />
  
  <!-- Símbolo estilizado del Día de la Mujer -->
  <g transform="translate(400, 520)">
    <circle cx="0" cy="0" r="38" fill="none" stroke="#e91e63" stroke-width="3" />
    <circle cx="0" cy="0" r="35" fill="none" stroke="#f06292" stroke-width="1" />
    <path d="M0,38 L0,75" stroke="#e91e63" stroke-width="4" />
    <path d="M-20,57 L20,57" stroke="#e91e63" stroke-width="4" />
    <!-- Embellecedores -->
    <path d="M-38,0 C-45,-10 -40,-25 -30,-30" stroke="#f06292" stroke-width="1" fill="none" />
    <path d="M38,0 C45,-10 40,-25 30,-30" stroke="#f06292" stroke-width="1" fill="none" />
    <path d="M0,-38 C10,-45 25,-40 30,-30" stroke="#f06292" stroke-width="1" fill="none" />
  </g>
  
  <!-- Arreglo floral superior -->
  <g transform="translate(400, 70)">
    <!-- Flores principales con gradientes y efectos -->
    <g>
      <!-- Flor central grande -->
      <path d="M0,0 C0,-25 25,-40 40,-20 C55,0 40,30 0,25 C-40,30 -55,0 -40,-20 C-25,-40 0,-25 0,0 Z" fill="url(#gradienteFlor1)" filter="url(#sombra)" />
      <!-- Capas interiores para dar profundidad -->
      <path d="M0,0 C0,-15 15,-25 25,-12 C35,0 25,18 0,15 C-25,18 -35,0 -25,-12 C-15,-25 0,-15 0,0 Z" fill="#f48fb1" />
      <path d="M0,0 C0,-8 8,-12 12,-6 C16,0 12,9 0,8 C-12,9 -16,0 -12,-6 C-8,-12 0,-8 0,0 Z" fill="#ec407a" />
      <circle cx="0" cy="0" r="4" fill="#e91e63" />
    </g>
    
    <!-- Flores laterales izquierda -->
    <g transform="translate(-120, 15) scale(0.8)">
      <path d="M0,0 C0,-25 25,-40 40,-20 C55,0 40,30 0,25 C-40,30 -55,0 -40,-20 C-25,-40 0,-25 0,0 Z" fill="url(#gradienteFlor2)" filter="url(#sombra)" transform="rotate(30)" />
      <path d="M0,0 C0,-15 15,-25 25,-12 C35,0 25,18 0,15 C-25,18 -35,0 -25,-12 C-15,-25 0,-15 0,0 Z" fill="#f06292" transform="rotate(30)" />
      <path d="M0,0 C0,-8 8,-12 12,-6 C16,0 12,9 0,8 C-12,9 -16,0 -12,-6 C-8,-12 0,-8 0,0 Z" fill="#ec407a" transform="rotate(30)" />
      <circle cx="0" cy="0" r="3" fill="#e91e63" />
    </g>
    
    <g transform="translate(-70, -30) scale(0.65)">
      <path d="M0,0 C0,-25 25,-40 40,-20 C55,0 40,30 0,25 C-40,30 -55,0 -40,-20 C-25,-40 0,-25 0,0 Z" fill="url(#gradienteFlor1)" filter="url(#sombra)" transform="rotate(-20)" />
      <path d="M0,0 C0,-15 15,-25 25,-12 C35,0 25,18 0,15 C-25,18 -35,0 -25,-12 C-15,-25 0,-15 0,0 Z" fill="#f48fb1" transform="rotate(-20)" />
      <path d="M0,0 C0,-8 8,-12 12,-6 C16,0 12,9 0,8 C-12,9 -16,0 -12,-6 C-8,-12 0,-8 0,0 Z" fill="#ec407a" transform="rotate(-20)" />
      <circle cx="0" cy="0" r="2.5" fill="#e91e63" />
    </g>
    
    <!-- Flores laterales derecha -->
    <g transform="translate(120, 15) scale(0.8)">
      <path d="M0,0 C0,-25 25,-40 40,-20 C55,0 40,30 0,25 C-40,30 -55,0 -40,-20 C-25,-40 0,-25 0,0 Z" fill="url(#gradienteFlor2)" filter="url(#sombra)" transform="rotate(-30)" />
      <path d="M0,0 C0,-15 15,-25 25,-12 C35,0 25,18 0,15 C-25,18 -35,0 -25,-12 C-15,-25 0,-15 0,0 Z" fill="#f06292" transform="rotate(-30)" />
      <path d="M0,0 C0,-8 8,-12 12,-6 C16,0 12,9 0,8 C-12,9 -16,0 -12,-6 C-8,-12 0,-8 0,0 Z" fill="#ec407a" transform="rotate(-30)" />
      <circle cx="0" cy="0" r="3" fill="#e91e63" />
    </g>
    
    <g transform="translate(70, -30) scale(0.65)">
      <path d="M0,0 C0,-25 25,-40 40,-20 C55,0 40,30 0,25 C-40,30 -55,0 -40,-20 C-25,-40 0,-25 0,0 Z" fill="url(#gradienteFlor1)" filter="url(#sombra)" transform="rotate(20)" />
      <path d="M0,0 C0,-15 15,-25 25,-12 C35,0 25,18 0,15 C-25,18 -35,0 -25,-12 C-15,-25 0,-15 0,0 Z" fill="#f48fb1" transform="rotate(20)" />
      <path d="M0,0 C0,-8 8,-12 12,-6 C16,0 12,9 0,8 C-12,9 -16,0 -12,-6 C-8,-12 0,-8 0,0 Z" fill="#ec407a" transform="rotate(20)" />
      <circle cx="0" cy="0" r="2.5" fill="#e91e63" />
    </g>
    
    <!-- Hojas y tallos estilizados -->
    <path d="M-120,15 C-80,70 -40,80 0,0" stroke="#43a047" stroke-width="3" fill="none" />
    <path d="M0,0 C40,70 80,80 120,15" stroke="#43a047" stroke-width="3" fill="none" />
    
    <!-- Hojas decorativas -->
    <path d="M-80,40 C-70,30 -60,30 -50,40 C-60,50 -70,50 -80,40 Z" fill="#66bb6a" />
    <path d="M-40,50 C-30,40 -20,40 -10,50 C-20,60 -30,60 -40,50 Z" fill="#66bb6a" />
    <path d="M10,50 C20,40 30,40 40,50 C30,60 20,60 10,50 Z" fill="#66bb6a" />
    <path d="M50,40 C60,30 70,30 80,40 C70,50 60,50 50,40 Z" fill="#66bb6a" />
    
    <!-- Detalles adicionales -->
    <circle cx="-100" cy="30" r="3" fill="#81c784" />
    <circle cx="-60" cy="45" r="2" fill="#81c784" />
    <circle cx="-30" cy="35" r="2" fill="#81c784" />
    <circle cx="30" cy="35" r="2" fill="#81c784" />
    <circle cx="60" cy="45" r="2" fill="#81c784" />
    <circle cx="100" cy="30" r="3" fill="#81c784" />
  </g>
  
  <!-- Flores decorativas en las esquinas del marco principal -->
  <g transform="translate(120, 170)">
    <path d="M0,0 C5,-10 15,-10 20,0 C25,10 15,20 0,15 C-15,20 -25,10 -20,0 C-15,-10 -5,-10 0,0 Z" fill="url(#gradienteFlor1)" transform="rotate(45)" />
    <circle cx="0" cy="0" r="5" fill="#ec407a" />
  </g>
  
  <g transform="translate(680, 170)">
    <path d="M0,0 C5,-10 15,-10 20,0 C25,10 15,20 0,15 C-15,20 -25,10 -20,0 C-15,-10 -5,-10 0,0 Z" fill="url(#gradienteFlor1)" transform="rotate(-45)" />
    <circle cx="0" cy="0" r="5" fill="#ec407a" />
  </g>
  
  <g transform="translate(120, 430)">
    <path d="M0,0 C5,-10 15,-10 20,0 C25,10 15,20 0,15 C-15,20 -25,10 -20,0 C-15,-10 -5,-10 0,0 Z" fill="url(#gradienteFlor1)" transform="rotate(135)" />
    <circle cx="0" cy="0" r="5" fill="#ec407a" />
  </g>
  
  <g transform="translate(680, 430)">
    <path d="M0,0 C5,-10 15,-10 20,0 C25,10 15,20 0,15 C-15,20 -25,10 -20,0 C-15,-10 -5,-10 0,0 Z" fill="url(#gradienteFlor1)" transform="rotate(225)" />
    <circle cx="0" cy="0" r="5" fill="#ec407a" />
  </g>
  
  <!-- Título principal con efectos -->
  <g filter="url(#sombra)">
    <text x="400" y="130" font-family="'Gabriola', 'Segoe Script', cursive" font-size="44" fill="#d81b60" text-anchor="middle" stroke="#f8bbd0" stroke-width="1">Feliz Día Internacional de la Mujer</text>
  </g>
  
  <!-- Nombre con estilo -->
  <g filter="url(#sombra)">
    <text x="400" y="180" font-family="'Lucida Calligraphy', 'Monotype Corsiva', cursive" font-size="28" fill="#ad1457" text-anchor="middle">Clementina Guerra Avila</text>
  </g>
  
  <!-- Marco interior para el mensaje con textura -->
  <rect x="150" y="200" width="500" height="200" rx="10" ry="10" fill="white" opacity="0.85" />
  <rect x="155" y="205" width="490" height="190" rx="8" ry="8" fill="none" stroke="#f8bbd0" stroke-width="1" stroke-dasharray="3,3" />
  
  <!-- Mensaje con sombra sutil -->
  <g filter="url(#sombra)">
    <text x="400" y="240" font-family="'Palatino Linotype', 'Book Antiqua', serif" font-size="20" fill="#333333" text-anchor="middle" font-style="italic">Mamá, en este día tan especial celebro tu fortaleza,</text>
    <text x="400" y="280" font-family="'Palatino Linotype', 'Book Antiqua', serif" font-size="20" fill="#333333" text-anchor="middle">sabiduría y el inmenso amor que siempre nos brindas.</text>
    <text x="400" y="320" font-family="'Palatino Linotype', 'Book Antiqua', serif" font-size="20" fill="#333333" text-anchor="middle">Tu ejemplo diario de entereza y dedicación</text>
    <text x="400" y="360" font-family="'Palatino Linotype', 'Book Antiqua', serif" font-size="20" fill="#333333" text-anchor="middle">ha sido mi mejor guía en la vida.</text>
  </g>
  
  <!-- Firma con efecto caligráfico -->
  <g transform="translate(550, 430)">
    <text x="0" y="0" font-family="'Brush Script MT', cursive" font-size="28" fill="#d81b60" text-anchor="end" filter="url(#sombra)">Con todo mi amor,</text>
    <text x="0" y="35" font-family="'Brush Script MT', cursive" font-size="28" fill="#d81b60" text-anchor="end" filter="url(#sombra)">Tu hijo</text>
  </g>
</svg>
